<svg width="85" height="85" viewBox="0 0 85 85" fill="none" xmlns="http://www.w3.org/2000/svg">
<path d="M58.4158 27.8424L58.4158 51.7072C58.403 52.0714 58.2493 52.4163 57.9871 52.6694C57.725 52.9224 57.3748 53.0639 57.0104 53.0639C56.6461 53.0639 56.2959 52.9224 56.0338 52.6694C55.7716 52.4163 55.6179 52.0714 55.6051 51.7072L55.6034 31.2381L28.8367 58.0049C28.5729 58.2686 28.2152 58.4168 27.8423 58.4168C27.4693 58.4168 27.1116 58.2686 26.8479 58.0049C26.5842 57.7412 26.436 57.3835 26.436 57.0105C26.436 56.6376 26.5842 56.2799 26.8479 56.0162L53.6147 29.2494L33.1456 29.2477C32.7814 29.2349 32.4365 29.0812 32.1834 28.819C31.9304 28.5569 31.7889 28.2067 31.7889 27.8424C31.7889 27.478 31.9304 27.1279 32.1834 26.8657C32.4365 26.6035 32.7814 26.4499 33.1456 26.437L57.0104 26.437C57.3831 26.4372 57.7404 26.5854 58.0039 26.8489C58.2674 27.1124 58.4156 27.4697 58.4158 27.8424Z" fill="black"/>
</svg>
