<svg width="40" height="40" viewBox="0 0 40 40" fill="none" xmlns="http://www.w3.org/2000/svg">
<path d="M37.5 20C37.501 20.4245 37.3922 20.8419 37.1841 21.2118C36.976 21.5817 36.6758 21.8915 36.3125 22.111L13.8 35.8829C13.4204 36.1153 12.9857 36.2422 12.5407 36.2504C12.0958 36.2586 11.6566 36.1479 11.2688 35.9297C10.8845 35.7149 10.5645 35.4016 10.3415 35.0221C10.1185 34.6426 10.0006 34.2105 10 33.7704V6.22973C10.0006 5.78956 10.1185 5.35749 10.3415 4.97797C10.5645 4.59845 10.8845 4.28518 11.2688 4.07036C11.6566 3.85215 12.0958 3.74146 12.5407 3.7497C12.9857 3.75794 13.4204 3.88482 13.8 4.11724L36.3125 17.8891C36.6758 18.1086 36.976 18.4184 37.1841 18.7883C37.3922 19.1582 37.501 19.5756 37.5 20Z" fill="white"/>
</svg>
